General

Format                           : MPEG-4
Format profile                   : Base Media
Codec ID                         : isom
File size                        : 61.7 MiB
Duration                         : 4mn 7s
Overall bit rate                 : 2 090 Kbps
Encoded date                     : UTC 2012-04-14 20:23:40
Tagged date                      : UTC 2012-04-14 20:23:40

Video
ID                               : 1
Format                           : AVC
Format/Info                      : Advanced Video Codec
Format profile                   : High@L3.0
Format settings, CABAC           : Yes
Format settings, ReFrames        : 2 frames
Codec ID                         : avc1
Codec ID/Info                    : Advanced Video Coding
Duration                         : 4mn 7s
Bit rate mode                    : Variable
Bit rate                         : 1 992 Kbps
Maximum bit rate                 : 6 449 Kbps
Width                            : 720 pixels
Height                           : 480 pixels
Display aspect ratio             : 16:9
Original display aspect ratio    : 16:9
Frame rate mode                  : Constant
Frame rate                       : 25.000 fps
Standard                         : NTSC
Color space                      : YUV
Chroma subsampling               : 4:2:0
Bit depth                        : 8 bits
Scan type                        : Progressive
Bits/(Pixel*Frame)               : 0.231
Stream size                      : 59.8 MiB (97%)


Audio
ID                               : 2
Format                           : AAC
Format/Info                      : Advanced Audio Codec
Format profile                   : LC
Codec ID                         : 40
Duration                         : 4mn 7s
Bit rate mode                    : Variable
Bit rate                         : 58.6 Kbps
Maximum bit rate                 : 84.6 Kbps
Channel(s)                       : 2 channels
Channel positions                : Front: L R
Sampling rate                    : 44.1 KHz
Compression mode                 : Lossy
Stream size                      : 1.73 MiB (3%)